<mxfile host="drawio-plugin" modified="2021-06-03T07:59:16.671Z" agent="5.0 (Macintosh; Intel Mac OS X 10_16_0) AppleWebKit/537.36 (KHTML, like Gecko) Chrome/84.0.4147.105 Safari/537.36" etag="jQN2SLkHklwIVDoBp7pd" version="14.6.6" type="embed"><diagram id="OwJAdhEKimbMbpAmpFVW" name="Page-1"><mxGraphModel dx="1826" dy="784" grid="0" gridSize="10" guides="1" tooltips="1" connect="1" arrows="1" fold="1" page="0" pageScale="1" pageWidth="850" pageHeight="1100" math="0" shadow="0"><root><mxCell id="0"/><mxCell id="1" parent="0"/><mxCell id="2" value="DFD1 : Event Card System" style="text;html=1;strokeColor=none;fillColor=none;align=center;verticalAlign=middle;whiteSpace=wrap;rounded=0;fontSize=24;" parent="1" vertex="1"><mxGeometry x="-178" y="50" width="300" height="80" as="geometry"/></mxCell><mxCell id="3" value="Event Card" style="whiteSpace=wrap;html=1;align=center;" parent="1" vertex="1"><mxGeometry x="197" y="608" width="217" height="85" as="geometry"/></mxCell><mxCell id="4" value="Comment" style="whiteSpace=wrap;html=1;align=center;" parent="1" vertex="1"><mxGeometry x="-21" y="400" width="100" height="40" as="geometry"/></mxCell><mxCell id="5" value="" style="shape=rhombus;perimeter=rhombusPerimeter;whiteSpace=wrap;html=1;align=center;" parent="1" vertex="1"><mxGeometry x="110" y="503" width="42" height="26" as="geometry"/></mxCell><mxCell id="6" value="" style="endArrow=none;html=1;rounded=0;exitX=0.5;exitY=1;exitDx=0;exitDy=0;entryX=0.5;entryY=0;entryDx=0;entryDy=0;" parent="1" source="4" target="5" edge="1"><mxGeometry relative="1" as="geometry"><mxPoint x="289" y="552" as="sourcePoint"/><mxPoint x="449" y="552" as="targetPoint"/></mxGeometry></mxCell><mxCell id="7" value="" style="endArrow=none;html=1;rounded=0;exitX=0;exitY=0;exitDx=0;exitDy=0;entryX=0.5;entryY=1;entryDx=0;entryDy=0;" parent="1" source="3" target="5" edge="1"><mxGeometry relative="1" as="geometry"><mxPoint x="211.75" y="608" as="sourcePoint"/><mxPoint x="210" y="524" as="targetPoint"/></mxGeometry></mxCell><mxCell id="13" value="Event" style="whiteSpace=wrap;html=1;align=center;" parent="1" vertex="1"><mxGeometry x="253" y="276" width="100" height="40" as="geometry"/></mxCell><mxCell id="14" value="" style="shape=rhombus;perimeter=rhombusPerimeter;whiteSpace=wrap;html=1;align=center;" parent="1" vertex="1"><mxGeometry x="282" y="434" width="42" height="26" as="geometry"/></mxCell><mxCell id="15" value="" style="endArrow=none;html=1;rounded=0;exitX=0.5;exitY=1;exitDx=0;exitDy=0;entryX=0.5;entryY=0;entryDx=0;entryDy=0;" parent="1" source="13" target="14" edge="1"><mxGeometry relative="1" as="geometry"><mxPoint x="395.5" y="552" as="sourcePoint"/><mxPoint x="555.5" y="552" as="targetPoint"/></mxGeometry></mxCell><mxCell id="16" value="" style="endArrow=none;html=1;rounded=0;exitX=0.5;exitY=0;exitDx=0;exitDy=0;entryX=0.5;entryY=1;entryDx=0;entryDy=0;" parent="1" source="3" target="14" edge="1"><mxGeometry relative="1" as="geometry"><mxPoint x="306.25" y="602" as="sourcePoint"/><mxPoint x="304.5" y="518" as="targetPoint"/></mxGeometry></mxCell><mxCell id="17" value="Note" style="whiteSpace=wrap;html=1;align=center;" parent="1" vertex="1"><mxGeometry x="490" y="394" width="100" height="40" as="geometry"/></mxCell><mxCell id="18" value="" style="shape=rhombus;perimeter=rhombusPerimeter;whiteSpace=wrap;html=1;align=center;" parent="1" vertex="1"><mxGeometry x="464" y="505" width="42" height="26" as="geometry"/></mxCell><mxCell id="19" value="" style="endArrow=none;html=1;rounded=0;exitX=0.5;exitY=1;exitDx=0;exitDy=0;entryX=0.5;entryY=0;entryDx=0;entryDy=0;" parent="1" source="17" target="18" edge="1"><mxGeometry relative="1" as="geometry"><mxPoint x="505" y="552" as="sourcePoint"/><mxPoint x="665" y="552" as="targetPoint"/></mxGeometry></mxCell><mxCell id="20" value="" style="endArrow=none;html=1;rounded=0;exitX=1;exitY=0;exitDx=0;exitDy=0;entryX=0.5;entryY=1;entryDx=0;entryDy=0;" parent="1" source="3" target="18" edge="1"><mxGeometry relative="1" as="geometry"><mxPoint x="414" y="608" as="sourcePoint"/><mxPoint x="414" y="518" as="targetPoint"/></mxGeometry></mxCell><mxCell id="21" value="User" style="whiteSpace=wrap;html=1;align=center;" parent="1" vertex="1"><mxGeometry x="-101" y="630.5" width="100" height="40" as="geometry"/></mxCell><mxCell id="22" value="" style="shape=rhombus;perimeter=rhombusPerimeter;whiteSpace=wrap;html=1;align=center;" parent="1" vertex="1"><mxGeometry x="72" y="637.5" width="42" height="26" as="geometry"/></mxCell><mxCell id="23" value="" style="endArrow=none;html=1;rounded=0;exitX=1;exitY=0.5;exitDx=0;exitDy=0;entryX=0;entryY=0.5;entryDx=0;entryDy=0;" parent="1" source="21" target="22" edge="1"><mxGeometry relative="1" as="geometry"><mxPoint x="111" y="586" as="sourcePoint"/><mxPoint x="271" y="586" as="targetPoint"/></mxGeometry></mxCell><mxCell id="24" value="" style="endArrow=none;html=1;rounded=0;exitX=0;exitY=0.5;exitDx=0;exitDy=0;entryX=1;entryY=0.5;entryDx=0;entryDy=0;" parent="1" source="3" target="22" edge="1"><mxGeometry relative="1" as="geometry"><mxPoint x="19.000000000000227" y="642" as="sourcePoint"/><mxPoint x="32" y="558" as="targetPoint"/></mxGeometry></mxCell><mxCell id="25" value="GUI" style="whiteSpace=wrap;html=1;align=center;" parent="1" vertex="1"><mxGeometry x="629" y="630.5" width="100" height="40" as="geometry"/></mxCell><mxCell id="26" value="" style="shape=rhombus;perimeter=rhombusPerimeter;whiteSpace=wrap;html=1;align=center;" parent="1" vertex="1"><mxGeometry x="503" y="637.5" width="42" height="26" as="geometry"/></mxCell><mxCell id="27" value="" style="endArrow=none;html=1;rounded=0;entryX=0;entryY=0.5;entryDx=0;entryDy=0;exitX=1;exitY=0.5;exitDx=0;exitDy=0;" parent="1" source="3" target="26" edge="1"><mxGeometry relative="1" as="geometry"><mxPoint x="480" y="635" as="sourcePoint"/><mxPoint x="706" y="588.5" as="targetPoint"/></mxGeometry></mxCell><mxCell id="28" value="" style="endArrow=none;html=1;rounded=0;exitX=0;exitY=0.5;exitDx=0;exitDy=0;entryX=1;entryY=0.5;entryDx=0;entryDy=0;" parent="1" source="25" target="26" edge="1"><mxGeometry relative="1" as="geometry"><mxPoint x="632" y="653" as="sourcePoint"/><mxPoint x="467" y="560.5" as="targetPoint"/></mxGeometry></mxCell><mxCell id="30" style="edgeStyle=orthogonalEdgeStyle;rounded=0;orthogonalLoop=1;jettySize=auto;html=1;entryX=0.18;entryY=1;entryDx=0;entryDy=0;entryPerimeter=0;" parent="1" source="29" target="3" edge="1"><mxGeometry relative="1" as="geometry"/></mxCell><mxCell id="29" value="AuthorName" style="ellipse;whiteSpace=wrap;html=1;align=center;" parent="1" vertex="1"><mxGeometry x="120" y="795" width="100" height="40" as="geometry"/></mxCell><mxCell id="32" style="edgeStyle=orthogonalEdgeStyle;rounded=0;orthogonalLoop=1;jettySize=auto;html=1;" parent="1" source="31" target="3" edge="1"><mxGeometry relative="1" as="geometry"/></mxCell><mxCell id="31" value="EventName" style="ellipse;whiteSpace=wrap;html=1;align=center;" parent="1" vertex="1"><mxGeometry x="255.5" y="831" width="100" height="40" as="geometry"/></mxCell><mxCell id="34" style="edgeStyle=orthogonalEdgeStyle;rounded=0;orthogonalLoop=1;jettySize=auto;html=1;entryX=0.912;entryY=1.012;entryDx=0;entryDy=0;entryPerimeter=0;" parent="1" source="33" target="3" edge="1"><mxGeometry relative="1" as="geometry"/></mxCell><mxCell id="33" value="EventID" style="ellipse;whiteSpace=wrap;html=1;align=center;" parent="1" vertex="1"><mxGeometry x="390" y="789" width="100" height="40" as="geometry"/></mxCell><mxCell id="42" style="edgeStyle=orthogonalEdgeStyle;rounded=0;orthogonalLoop=1;jettySize=auto;html=1;entryX=0;entryY=0.5;entryDx=0;entryDy=0;" parent="1" source="36" target="13" edge="1"><mxGeometry relative="1" as="geometry"/></mxCell><mxCell id="36" value="EventDate" style="ellipse;whiteSpace=wrap;html=1;align=center;" parent="1" vertex="1"><mxGeometry x="79" y="241" width="100" height="40" as="geometry"/></mxCell><mxCell id="43" style="edgeStyle=orthogonalEdgeStyle;rounded=0;orthogonalLoop=1;jettySize=auto;html=1;entryX=0;entryY=0;entryDx=0;entryDy=0;" parent="1" source="37" target="13" edge="1"><mxGeometry relative="1" as="geometry"/></mxCell><mxCell id="37" value="ChapterNo" style="ellipse;whiteSpace=wrap;html=1;align=center;" parent="1" vertex="1"><mxGeometry x="155.5" y="177" width="100" height="40" as="geometry"/></mxCell><mxCell id="44" style="edgeStyle=orthogonalEdgeStyle;rounded=0;orthogonalLoop=1;jettySize=auto;html=1;entryX=0.44;entryY=0.05;entryDx=0;entryDy=0;entryPerimeter=0;" parent="1" source="38" target="13" edge="1"><mxGeometry relative="1" as="geometry"/></mxCell><mxCell id="38" value="Role" style="ellipse;whiteSpace=wrap;html=1;align=center;" parent="1" vertex="1"><mxGeometry x="267" y="169" width="100" height="40" as="geometry"/></mxCell><mxCell id="45" style="edgeStyle=orthogonalEdgeStyle;rounded=0;orthogonalLoop=1;jettySize=auto;html=1;entryX=1;entryY=0.25;entryDx=0;entryDy=0;" parent="1" source="39" target="13" edge="1"><mxGeometry relative="1" as="geometry"/></mxCell><mxCell id="39" value="Location" style="ellipse;whiteSpace=wrap;html=1;align=center;" parent="1" vertex="1"><mxGeometry x="401" y="194" width="100" height="40" as="geometry"/></mxCell><mxCell id="46" style="edgeStyle=orthogonalEdgeStyle;rounded=0;orthogonalLoop=1;jettySize=auto;html=1;entryX=1;entryY=0.75;entryDx=0;entryDy=0;" parent="1" source="40" target="13" edge="1"><mxGeometry relative="1" as="geometry"><mxPoint x="358" y="309" as="targetPoint"/></mxGeometry></mxCell><mxCell id="40" value="QuickNote" style="ellipse;whiteSpace=wrap;html=1;align=center;" parent="1" vertex="1"><mxGeometry x="448" y="252" width="100" height="40" as="geometry"/></mxCell><mxCell id="51" style="edgeStyle=orthogonalEdgeStyle;rounded=0;orthogonalLoop=1;jettySize=auto;html=1;entryX=0.25;entryY=0;entryDx=0;entryDy=0;" parent="1" source="48" target="4" edge="1"><mxGeometry relative="1" as="geometry"/></mxCell><mxCell id="48" value="CommentAuthor" style="ellipse;whiteSpace=wrap;html=1;align=center;" parent="1" vertex="1"><mxGeometry x="-210" y="354" width="100" height="40" as="geometry"/></mxCell><mxCell id="52" style="edgeStyle=orthogonalEdgeStyle;rounded=0;orthogonalLoop=1;jettySize=auto;html=1;entryX=0;entryY=0.25;entryDx=0;entryDy=0;" parent="1" source="49" target="4" edge="1"><mxGeometry relative="1" as="geometry"/></mxCell><mxCell id="49" value="CommentTime" style="ellipse;whiteSpace=wrap;html=1;align=center;" parent="1" vertex="1"><mxGeometry x="-243" y="440" width="100" height="40" as="geometry"/></mxCell><mxCell id="53" style="edgeStyle=orthogonalEdgeStyle;rounded=0;orthogonalLoop=1;jettySize=auto;html=1;entryX=0.25;entryY=1;entryDx=0;entryDy=0;" parent="1" source="50" target="4" edge="1"><mxGeometry relative="1" as="geometry"/></mxCell><mxCell id="50" value="CommentText" style="ellipse;whiteSpace=wrap;html=1;align=center;" parent="1" vertex="1"><mxGeometry x="-87" y="489" width="100" height="40" as="geometry"/></mxCell><mxCell id="55" style="edgeStyle=orthogonalEdgeStyle;rounded=0;orthogonalLoop=1;jettySize=auto;html=1;entryX=1;entryY=0.5;entryDx=0;entryDy=0;" parent="1" source="54" target="17" edge="1"><mxGeometry relative="1" as="geometry"/></mxCell><mxCell id="54" value="NoteText" style="ellipse;whiteSpace=wrap;html=1;align=center;" parent="1" vertex="1"><mxGeometry x="663" y="394" width="100" height="40" as="geometry"/></mxCell><mxCell id="61" style="edgeStyle=orthogonalEdgeStyle;rounded=0;orthogonalLoop=1;jettySize=auto;html=1;" edge="1" parent="1" source="56" target="17"><mxGeometry relative="1" as="geometry"/></mxCell><mxCell id="56" value="EventID" style="ellipse;whiteSpace=wrap;html=1;align=center;" vertex="1" parent="1"><mxGeometry x="661" y="322" width="100" height="40" as="geometry"/></mxCell><mxCell id="60" style="edgeStyle=orthogonalEdgeStyle;rounded=0;orthogonalLoop=1;jettySize=auto;html=1;entryX=0.19;entryY=1;entryDx=0;entryDy=0;entryPerimeter=0;" edge="1" parent="1" source="57" target="13"><mxGeometry relative="1" as="geometry"/></mxCell><mxCell id="57" value="EventID" style="ellipse;whiteSpace=wrap;html=1;align=center;" vertex="1" parent="1"><mxGeometry x="122" y="332" width="100" height="40" as="geometry"/></mxCell><mxCell id="59" style="edgeStyle=orthogonalEdgeStyle;rounded=0;orthogonalLoop=1;jettySize=auto;html=1;entryX=0.59;entryY=0.025;entryDx=0;entryDy=0;entryPerimeter=0;" edge="1" parent="1" source="58" target="4"><mxGeometry relative="1" as="geometry"/></mxCell><mxCell id="58" value="EventID" style="ellipse;whiteSpace=wrap;html=1;align=center;" vertex="1" parent="1"><mxGeometry x="-74" y="294" width="100" height="40" as="geometry"/></mxCell></root></mxGraphModel></diagram></mxfile>